<svg xmlns="http://www.w3.org/2000/svg" viewBox="0 0 864 160.7286">
  <title>braiins-os+-logo-reverse-rgb</title>
  <g id="white-rgb">
    <g>
      <path id="fullLogo" d="M147.56,66.9164c0-14.1585-8.7275-23.74-22.464-23.74H89.855v74.3077h16.1866V90.23H117.647l12.9854,27.2542h17.99L134.0416,88.311C143.0861,84.9071,147.56,76.9209,147.56,66.9164Zm-16.7137,2.3409c0,4.7912-2.9818,7.3454-7.7731,7.3454H106.0416V57.2254h17.0319c4.7913,0,7.7731,2.5544,7.7731,7.3454Z" style="fill: #fff"/>
      <polygon id="fullLogo-2" data-name="fullLogo" points="389.765 93.213 389.441 93.213 382.309 78.308 361.978 43.176 344.3 43.176 344.3 117.485 359.528 117.485 359.528 67.449 359.846 67.449 366.977 82.354 387.314 117.485 404.987 117.485 404.987 43.176 389.765 43.176 389.765 93.213" style="fill: #fff"/>
      <polygon id="fullLogo-3" data-name="fullLogo" points="261.372 43.186 245.185 43.176 245.185 43.186 245.185 56.051 260.541 106.987 260.541 117.484 276.728 117.484 276.728 104.605 261.372 53.669 261.372 43.186" style="fill: #fff"/>
      <polygon id="fullLogo-4" data-name="fullLogo" points="307.313 43.186 291.126 43.176 291.126 43.186 291.126 56.051 306.482 106.987 306.482 117.484 322.669 117.484 322.669 104.605 307.313 53.669 307.313 43.186" style="fill: #fff"/>
      <polygon id="fullLogo-5" data-name="fullLogo" points="212.302 43.176 185.314 43.176 182.157 53.66 166.801 104.595 166.801 117.475 182.988 117.475 182.988 106.978 197.799 57.851 199.817 57.851 214.628 106.978 214.628 117.475 230.815 117.475 230.815 104.595 215.459 53.66 212.302 43.176" style="fill: #fff"/>
      <path id="fullLogo-6" data-name="fullLogo" d="M460.1542,72.7713,452.7005,71.6q-4.7907-.7434-6.7054-2.1825-1.9153-1.4356-1.9165-5.0569c0-4.4711,3.5481-6.809,10.6447-6.809h22.7841V43.1764H454.7233q-12.56.2139-19.6928,6.175c-4.7567,3.9759-7.1339,9.3683-7.1339,15.9675,0,6.2469,1.8459,11.2151,5.5368,14.6918q5.5323,5.2174,17.1387,6.6l7.345.9582q4.7913.6387,6.7081,2.7158a7.4671,7.4671,0,0,1,1.9173,5.27,8.0993,8.0993,0,0,1-2.9827,6.6q-2.983,2.4512-8.7278,2.45-10.9669,0-18.6329-8.6235L425.66,106.7317q10.7516,12.0313,28,12.0305a36.8359,36.8359,0,0,0,15.5961-3.0343,22.5722,22.5722,0,0,0,9.9537-8.4636,23.1322,23.1322,0,0,0,3.4053-12.5618q0-9.475-5.5337-14.7989Q471.5446,74.5812,460.1542,72.7713Z" style="fill: #fff"/>
      <path id="fullLogo-7" data-name="fullLogo" d="M56.2774,78.7017V78.06c5.0808-1.8575,9.0056-7.06,9.0056-15.82q0-8.6227-5.1624-13.8393-5.1639-5.2154-14.4252-5.2168L0,43.1764V56.0486H9.6033v61.4461H48.9955a17.7819,17.7819,0,0,0,7.6652-1.65,18.6036,18.6036,0,0,0,6.0682-4.5252,21.0244,21.0244,0,0,0,3.9915-6.76,23.55,23.55,0,0,0,1.437-8.2511C68.1574,86.51,62.29,80.8132,56.2774,78.7017ZM25.788,56.8106H41.8644a6.2673,6.2673,0,0,1,6.8141,6.8141v3.1942a6.2673,6.2673,0,0,1-6.8141,6.8141H25.788ZM51.3409,97.16a6.4833,6.4833,0,0,1-1.8627,4.9512,7.0728,7.0728,0,0,1-5.0565,1.7556H25.788V86.8334H44.4217a7.0735,7.0735,0,0,1,5.0565,1.757,6.4821,6.4821,0,0,1,1.8627,4.95Z" style="fill: #fff"/>
      <path id="fullLogo-8" data-name="fullLogo" d="M593.97,57.8066a22.587,22.587,0,1,0,22.5876,22.5871A22.5868,22.5868,0,0,0,593.97,57.8066Z" style="fill: #fff"/>
      <path id="fullLogo-9" data-name="fullLogo" d="M831.8543,32.1457V0H510.3972V32.1457l32.1457,96.4372v32.1457H864V128.5829ZM593.97,118.76a38.4249,38.4249,0,1,1,38.4254-38.4246A38.4246,38.4246,0,0,1,593.97,118.76Zm103.6919-11.4974a22.5752,22.5752,0,0,1-9.9537,8.4637,36.8428,36.8428,0,0,1-15.5961,3.0339q-17.2491,0-28.0007-12.03L654.65,95.978q7.6665,8.6217,18.6329,8.6239,5.7465,0,8.7282-2.45a8.0992,8.0992,0,0,0,2.9827-6.599,7.47,7.47,0,0,0-1.9169-5.27q-1.9159-2.0754-6.7086-2.7151l-7.3454-.9586q-11.6037-1.3815-17.1386-6.5994c-3.691-3.4765-5.5364-8.4454-5.5364-14.692,0-6.5989,2.3772-11.9915,7.1339-15.9673q7.1309-5.9609,19.6924-6.1753h22.7841V57.55H673.1745c-7.0963,0-10.6448,2.3384-10.6448,6.809q0,3.6214,1.9165,5.0573,1.9159,1.4374,6.7054,2.182l7.4541,1.1715q11.3907,1.81,16.9275,7.1319,5.5317,5.3252,5.5341,14.7992A23.1309,23.1309,0,0,1,697.6616,107.2628Zm150.2655,37.3929H751.49V128.5829L719.3443,32.1457V16.0729h96.4371V32.1457l32.1457,96.4372Z" style="fill: #fff"/>
      <polygon id="fullLogo-10" data-name="fullLogo" points="790.868 51.433 776.403 51.433 776.403 73.131 754.705 73.131 754.705 87.597 776.403 87.597 776.403 109.295 790.868 109.295 790.868 87.597 812.567 87.597 812.567 73.131 790.868 73.131 790.868 51.433" style="fill: #fff"/>
    </g>
  </g>
</svg>
