<svg width="14" height="14" viewBox="0 0 14 14" fill="none" xmlns="http://www.w3.org/2000/svg">
<path d="M4.51172 11.3354C4.51172 11.2808 4.45703 11.2261 4.375 11.2261C4.29297 11.2261 4.23828 11.2808 4.23828 11.3354C4.23828 11.3901 4.29297 11.4448 4.375 11.4175C4.45703 11.4175 4.51172 11.3901 4.51172 11.3354ZM3.66406 11.1987C3.66406 11.2534 3.71875 11.3354 3.80078 11.3354C3.85547 11.3628 3.9375 11.3354 3.96484 11.2808C3.96484 11.2261 3.9375 11.1714 3.85547 11.144C3.77344 11.1167 3.69141 11.144 3.66406 11.1987ZM4.89453 11.1714C4.8125 11.1714 4.75781 11.2261 4.75781 11.3081C4.75781 11.3628 4.83984 11.3901 4.92188 11.3628C5.00391 11.3354 5.05859 11.3081 5.03125 11.2534C5.03125 11.1987 4.94922 11.144 4.89453 11.1714ZM6.67188 0.671387C2.89844 0.671387 0 3.56982 0 7.34326C0 10.3784 1.88672 12.9761 4.62109 13.9058C4.97656 13.9604 5.08594 13.7417 5.08594 13.5776C5.08594 13.3862 5.08594 12.4565 5.08594 11.8823C5.08594 11.8823 3.17188 12.2925 2.76172 11.062C2.76172 11.062 2.46094 10.269 2.02344 10.0776C2.02344 10.0776 1.39453 9.64014 2.05078 9.64014C2.05078 9.64014 2.73438 9.69482 3.11719 10.3511C3.71875 11.4175 4.70312 11.1167 5.11328 10.9253C5.16797 10.4878 5.33203 10.187 5.55078 9.99561C4.01953 9.83154 2.46094 9.61279 2.46094 6.98779C2.46094 6.22217 2.67969 5.8667 3.11719 5.37451C3.03516 5.18311 2.81641 4.47217 3.19922 3.51514C3.74609 3.35107 5.08594 4.25342 5.08594 4.25342C5.63281 4.08936 6.20703 4.03467 6.78125 4.03467C7.38281 4.03467 7.95703 4.08936 8.50391 4.25342C8.50391 4.25342 9.81641 3.32373 10.3906 3.51514C10.7734 4.47217 10.5273 5.18311 10.4727 5.37451C10.9102 5.8667 11.1836 6.22217 11.1836 6.98779C11.1836 9.61279 9.57031 9.83154 8.03906 9.99561C8.28516 10.2144 8.50391 10.6245 8.50391 11.2808C8.50391 12.1831 8.47656 13.3315 8.47656 13.5503C8.47656 13.7417 8.61328 13.9604 8.96875 13.8784C11.7031 12.9761 13.5625 10.3784 13.5625 7.34326C13.5625 3.56982 10.4727 0.671387 6.67188 0.671387ZM2.65234 10.105C2.59766 10.1323 2.625 10.2144 2.65234 10.269C2.70703 10.2964 2.76172 10.3237 2.81641 10.2964C2.84375 10.269 2.84375 10.187 2.78906 10.1323C2.73438 10.105 2.67969 10.0776 2.65234 10.105ZM2.35156 9.88623C2.32422 9.94092 2.35156 9.96826 2.40625 9.99561C2.46094 10.0229 2.51562 10.0229 2.54297 9.96826C2.54297 9.94092 2.51562 9.91357 2.46094 9.88623C2.40625 9.85889 2.37891 9.85889 2.35156 9.88623ZM3.22656 10.8706C3.19922 10.8979 3.19922 10.98 3.28125 11.0347C3.33594 11.0894 3.41797 11.1167 3.44531 11.062C3.47266 11.0347 3.47266 10.9526 3.41797 10.8979C3.36328 10.8433 3.28125 10.8159 3.22656 10.8706ZM2.92578 10.4604C2.87109 10.4878 2.87109 10.5698 2.92578 10.6245C2.98047 10.6792 3.03516 10.7065 3.08984 10.6792C3.11719 10.6519 3.11719 10.5698 3.08984 10.5151C3.03516 10.4604 2.98047 10.4331 2.92578 10.4604Z" fill="#8D8D8D"/>
</svg>
