<svg width="14" height="15" viewBox="0 0 14 15" fill="none" xmlns="http://www.w3.org/2000/svg">
<path d="M6.78125 0.671387C3.03516 0.671387 0 3.70654 0 7.45264C0 11.1987 3.03516 14.2339 6.78125 14.2339C10.5273 14.2339 13.5625 11.1987 13.5625 7.45264C13.5625 3.70654 10.5273 0.671387 6.78125 0.671387ZM10.0898 5.31982L8.99609 10.5698C8.91406 10.9526 8.69531 11.0347 8.36719 10.8706L6.67188 9.61279L5.85156 10.4058C5.76953 10.4878 5.6875 10.5698 5.52344 10.5698L5.63281 8.84717L8.77734 6.00342C8.91406 5.89404 8.75 5.81201 8.55859 5.92139L4.67578 8.38232L3.00781 7.86279C2.65234 7.75342 2.65234 7.47998 3.08984 7.31592L9.625 4.80029C9.92578 4.69092 10.1992 4.88232 10.0898 5.31982Z" fill="#8D8D8D"/>
</svg>
