<svg width="14" height="13" viewBox="0 0 14 13" fill="none" xmlns="http://www.w3.org/2000/svg">
<path d="M12.5508 3.60889C13.0977 3.19873 13.5898 2.70654 13.9727 2.13232C13.4805 2.35107 12.9062 2.51514 12.332 2.56982C12.9336 2.21436 13.3711 1.66748 13.5898 0.983887C13.043 1.31201 12.4141 1.55811 11.7852 1.69482C11.2383 1.12061 10.5 0.79248 9.67969 0.79248C8.09375 0.79248 6.80859 2.07764 6.80859 3.66357C6.80859 3.88232 6.83594 4.10107 6.89062 4.31982C4.51172 4.18311 2.37891 3.03467 0.957031 1.31201C0.710938 1.72217 0.574219 2.21436 0.574219 2.76123C0.574219 3.74561 1.06641 4.62061 1.85938 5.14014C1.39453 5.11279 0.929688 5.00342 0.546875 4.78467V4.81201C0.546875 6.20654 1.53125 7.35498 2.84375 7.62842C2.625 7.68311 2.35156 7.73779 2.10547 7.73779C1.91406 7.73779 1.75 7.71045 1.55859 7.68311C1.91406 8.83154 2.98047 9.65186 4.23828 9.6792C3.25391 10.4448 2.02344 10.9097 0.683594 10.9097C0.4375 10.9097 0.21875 10.8823 0 10.855C1.25781 11.6753 2.76172 12.1401 4.40234 12.1401C9.67969 12.1401 12.5508 7.79248 12.5508 3.9917C12.5508 3.85498 12.5508 3.74561 12.5508 3.60889Z" fill="#8D8D8D"/>
</svg>
