<svg width="14" height="12" viewBox="0 0 14 12" fill="none" xmlns="http://www.w3.org/2000/svg">
<path fill-rule="evenodd" clip-rule="evenodd" d="M12.5428 10.0497C13.4318 9.40508 14 8.4525 14 7.39317C14 5.453 12.1117 3.87975 9.78308 3.87975C7.45442 3.87975 5.56617 5.453 5.56617 7.39317C5.56617 9.33392 7.45442 10.9072 9.78308 10.9072C10.2643 10.9072 10.7287 10.8389 11.1597 10.7147L11.2834 10.696C11.3645 10.696 11.438 10.7211 11.5074 10.7607L12.4308 11.2939L12.5119 11.3202C12.5895 11.3202 12.6525 11.2572 12.6525 11.1796L12.6297 11.0769L12.4396 10.3682L12.425 10.2783C12.425 10.1838 12.4717 10.1004 12.5428 10.0497V10.0497ZM5.06042 0C2.26567 0 0 1.88767 0 4.21692C0 5.48742 0.681333 6.63133 1.74825 7.40425C1.834 7.46492 1.89 7.56525 1.89 7.679L1.8725 7.78633L1.64442 8.63683L1.617 8.75992C1.617 8.85325 1.69283 8.92908 1.78558 8.92908L1.88358 8.89758L2.99133 8.25767C3.07417 8.20983 3.16225 8.18008 3.25967 8.18008L3.40842 8.20225C3.92525 8.351 4.48292 8.43383 5.06042 8.43383L5.33808 8.42683C5.22842 8.09783 5.16833 7.75133 5.16833 7.39375C5.16833 5.26983 7.2345 3.54783 9.78308 3.54783L10.0578 3.55483C9.67692 1.54058 7.5845 0 5.06042 0V0ZM8.37725 6.83142C8.06692 6.83142 7.8155 6.57942 7.8155 6.26908C7.8155 5.95817 8.06692 5.70675 8.37725 5.70675C8.68817 5.70675 8.93958 5.95817 8.93958 6.26908C8.93958 6.57942 8.68817 6.83142 8.37725 6.83142ZM11.1889 6.83142C10.878 6.83142 10.6266 6.57942 10.6266 6.26908C10.6266 5.95817 10.878 5.70675 11.1889 5.70675C11.4992 5.70675 11.7507 5.95817 11.7507 6.26908C11.7507 6.57942 11.4992 6.83142 11.1889 6.83142ZM3.37342 3.542C3.00067 3.542 2.69908 3.23983 2.69908 2.86767C2.69908 2.49492 3.00067 2.19275 3.37342 2.19275C3.74617 2.19275 4.04833 2.49492 4.04833 2.86767C4.04833 3.23983 3.74617 3.542 3.37342 3.542ZM6.74683 3.542C6.37408 3.542 6.0725 3.23983 6.0725 2.86767C6.0725 2.49492 6.37408 2.19275 6.74683 2.19275C7.11958 2.19275 7.42175 2.49492 7.42175 2.86767C7.42175 3.23983 7.11958 3.542 6.74683 3.542Z" fill="#8D8D8D"/>
</svg>
