<svg width="16" height="11" viewBox="0 0 16 11" fill="none" xmlns="http://www.w3.org/2000/svg">
<path d="M15.0117 1.87061C14.8477 1.21436 14.3281 0.694824 13.6992 0.530762C12.5234 0.202637 7.875 0.202637 7.875 0.202637C7.875 0.202637 3.19922 0.202637 2.02344 0.530762C1.39453 0.694824 0.875 1.21436 0.710938 1.87061C0.382812 3.01904 0.382812 5.47998 0.382812 5.47998C0.382812 5.47998 0.382812 7.91357 0.710938 9.08936C0.875 9.74561 1.39453 10.2378 2.02344 10.4019C3.19922 10.7026 7.875 10.7026 7.875 10.7026C7.875 10.7026 12.5234 10.7026 13.6992 10.4019C14.3281 10.2378 14.8477 9.74561 15.0117 9.08936C15.3398 7.91357 15.3398 5.47998 15.3398 5.47998C15.3398 5.47998 15.3398 3.01904 15.0117 1.87061ZM6.34375 7.69482V3.26514L10.2266 5.47998L6.34375 7.69482Z" fill="#8D8D8D"/>
</svg>
